<svg xmlns="http://www.w3.org/2000/svg" width="30" height="30" viewBox="0 0 30 30">
    <g fill="none" fill-rule="evenodd">
        <g>
            <g>
                <g transform="translate(-1158 -2184) translate(1 2143) translate(1157 41)">
                    <path fill="#FFF" fill-rule="nonzero" d="M16.843 10.53h1.5c.322 0 .584-.25.584-.558V7.665c0-.308-.262-.558-.583-.558h-2.06l-.103-.002c-.389 0-1.74.074-2.813 1.018-1.171 1.03-1.06 2.264-1.01 2.568v1.503h-1.491c-.322 0-.583.25-.583.558v2.482c0 .307.261.558.583.558h1.405v6.514c0 .308.261.558.583.558h2.939c.321 0 .583-.25.583-.558v-6.482h1.664c.297 0 .546-.212.58-.494l.302-2.514c.02-.158-.033-.317-.144-.435-.11-.119-.27-.187-.435-.187h-1.967v-1.262c0-.26.074-.402.466-.402zm-.794 2.292h2.213l-.286 2.374H16.05c-.181 0-.328.14-.328.314v6.726h-2.793v-6.758c0-.174-.147-.314-.328-.314h-1.66v-2.342h1.746c.181 0 .328-.14.328-.314v-1.843c0-.018-.001-.036-.005-.053-.034-.19-.158-1.181.803-2.027.898-.79 2.04-.852 2.37-.852.045 0 .073.001.078.002h2.011v2.168h-1.428c-.703 0-1.122.385-1.122 1.03v1.575c0 .174.147.314.328.314z"/>
                    <path fill="#FFF" fill-rule="nonzero" d="M13.588 17.684c-.18 0-.328.14-.328.314v.157c0 .174.147.314.328.314.181 0 .328-.14.328-.314v-.157c0-.173-.147-.314-.328-.314zM13.588 18.846c-.18 0-.328.14-.328.314v2.385c0 .174.147.314.328.314.181 0 .328-.14.328-.314V19.16c0-.174-.147-.314-.328-.314z"/>
                    <circle cx="15" cy="15" r="14.435" stroke="#FFF" stroke-width="1.129"/>
                </g>
            </g>
        </g>
    </g>
</svg>
