<svg xmlns="http://www.w3.org/2000/svg" width="30" height="30" viewBox="0 0 30 30">
    <g fill="none" fill-rule="evenodd">
        <g>
            <g>
                <g>
                    <g transform="translate(-1202 -2184) translate(1 2143) translate(1157 41) translate(44)">
                        <circle cx="15" cy="15" r="14.435" stroke="#FFF" stroke-width="1.129"/>
                        <g fill="#FFF" fill-rule="nonzero">
                            <g>
                                <path d="M11.08 0H4.71C2.123 0 .019 2.103.019 4.689V11.1c0 2.586 2.104 4.69 4.69 4.69h6.372c2.585 0 4.689-2.104 4.689-4.69V4.69C15.77 2.103 13.666 0 11.08 0zm4.06 11.1c0 2.24-1.82 4.06-4.06 4.06H4.71c-2.239 0-4.06-1.82-4.06-4.06V4.69c0-2.239 1.821-4.06 4.06-4.06h6.372c2.238 0 4.06 1.821 4.06 4.06V11.1z" transform="translate(7.105 7.105)"/>
                                <path d="M11.08 1.798H4.71c-1.595 0-2.892 1.297-2.892 2.891v6.412c0 1.594 1.297 2.89 2.892 2.89h6.372c1.594 0 2.891-1.296 2.891-2.89V4.689c0-1.594-1.297-2.891-2.891-2.891zm2.263 9.302c0 1.248-1.015 2.263-2.262 2.263H4.709c-1.248 0-2.263-1.015-2.263-2.263V4.69c0-1.247 1.015-2.262 2.263-2.262h6.372c1.247 0 2.262 1.015 2.262 2.262V11.1z" transform="translate(7.105 7.105)"/>
                            </g>
                            <g>
                                <path d="M4.07.005C1.83.005.007 1.83.007 4.071c0 2.241 1.823 4.065 4.065 4.065 2.241 0 4.065-1.824 4.065-4.065C8.136 1.829 6.312.005 4.07.005zm0 7.502C2.177 7.507.636 5.965.636 4.07.635 2.176 2.176.635 4.07.635c1.894 0 3.436 1.541 3.436 3.436 0 1.894-1.542 3.436-3.436 3.436z" transform="translate(7.105 7.105) translate(3.824 3.824)"/>
                                <path d="M4.07 1.76c-1.274 0-2.31 1.036-2.31 2.31 0 1.275 1.036 2.312 2.31 2.312 1.275 0 2.312-1.037 2.312-2.311 0-1.275-1.037-2.312-2.311-2.312zm0 3.993c-.927 0-1.682-.754-1.682-1.682 0-.928.755-1.683 1.683-1.683s1.682.755 1.682 1.683S5 5.753 4.071 5.753z" transform="translate(7.105 7.105) translate(3.824 3.824)"/>
                            </g>
                            <path d="M11.734 3.079c-.539 0-.977.438-.977.977 0 .538.438.977.977.977.538 0 .976-.439.976-.977 0-.539-.438-.977-.976-.977zm0 1.324c-.192 0-.348-.156-.348-.347 0-.192.156-.348.348-.348.191 0 .347.156.347.348 0 .191-.156.347-.347.347zM7.391 14.28H4.435c-.174 0-.315.14-.315.314s.141.315.315.315H7.39c.174 0 .315-.141.315-.315 0-.173-.14-.314-.315-.314zM8.587 14.28h-.189c-.174 0-.315.14-.315.314s.141.315.315.315h.189c.173 0 .314-.141.314-.315 0-.173-.14-.314-.314-.314z" transform="translate(7.105 7.105)"/>
                        </g>
                    </g>
                </g>
            </g>
        </g>
    </g>
</svg>
