<svg xmlns="http://www.w3.org/2000/svg" width="30" height="30" viewBox="0 0 30 30">
    <g fill="none" fill-rule="evenodd">
        <g>
            <g>
                <g>
                    <g transform="translate(-1291 -2184) translate(1 2143) translate(1157 41) translate(133)">
                        <circle cx="15" cy="15" r="14.435" stroke="#FFF" stroke-width="1.129"/>
                        <g fill="#FFF" fill-rule="nonzero">
                            <path d="M3.843 4.877H.8c-.308 0-.56.251-.56.56v9.777c0 .308.252.559.56.559h3.043c.309 0 .56-.251.56-.56V5.437c0-.308-.251-.559-.56-.559zm-.07 10.267H.87V5.506h2.903v9.638zM3.964.697c-.44-.439-1.022-.68-1.641-.68C1.042.017 0 1.057 0 2.337 0 3.617 1.042 4.66 2.323 4.66c1.28 0 2.321-1.042 2.321-2.322 0-.619-.242-1.201-.68-1.64zM2.323 4.03c-.934 0-1.694-.76-1.694-1.693 0-.932.76-1.691 1.694-1.691.451 0 .876.176 1.196.496.32.32.496.744.496 1.195 0 .934-.76 1.693-1.692 1.693zM15.086 6.331c-.664-1.126-1.842-1.697-3.501-1.697-1.07 0-1.846.365-2.363.741-.03-.28-.268-.498-.556-.498H5.752c-.309 0-.56.251-.56.56v9.777c0 .308.251.559.56.559h3.036c.309 0 .56-.251.56-.56v-4.837c0-1.64.444-1.95 1.264-1.95.802 0 1.021.437 1.021 2.034v4.754c0 .308.251.559.56.559h3.037c.309 0 .56-.25.56-.56V9.852c0-1.084-.08-2.463-.704-3.52zm.074 8.813h-2.897V10.46c0-.637-.018-1.3-.23-1.797-.244-.575-.723-.867-1.42-.867-1.67 0-1.895 1.305-1.895 2.58v4.768H5.822V5.506h2.774v.565c0 .13.08.246.2.293.122.048.259.016.346-.08.35-.381 1.133-1.02 2.443-1.02 3.142 0 3.575 2.204 3.575 4.587v5.293z" transform="translate(7.105 7.105)"/>
                            <path d="M1.51 11.229c-.174 0-.315.14-.315.314v2.925c0 .174.141.315.315.315.173 0 .314-.14.314-.315v-2.925c0-.173-.14-.314-.314-.314zM1.51 9.908c-.174 0-.315.14-.315.314v.283c0 .174.141.315.315.315.173 0 .314-.14.314-.315v-.283c0-.173-.14-.314-.314-.314z" transform="translate(7.105 7.105)"/>
                        </g>
                    </g>
                </g>
            </g>
        </g>
    </g>
</svg>
