<svg xmlns="http://www.w3.org/2000/svg" width="15" height="23" viewBox="0 0 15 23">
    <g fill="none" fill-rule="evenodd">
        <g fill="#FCBD5F" fill-rule="nonzero">
            <g>
                <path d="M405.99 18.72c-3.87 0-7.02 3.324-7.02 7.41 0 1.227.29 2.443.843 3.521l5.793 11.06c.077.148.224.239.384.239s.307-.091.384-.239l5.795-11.063c.55-1.075.841-2.291.841-3.518 0-4.086-3.15-7.41-7.02-7.41zm0 11.115c-1.935 0-3.51-1.662-3.51-3.705s1.575-3.705 3.51-3.705c1.935 0 3.51 1.662 3.51 3.705s-1.575 3.705-3.51 3.705z" transform="translate(-697 -537) translate(298.054 518.73)"/>
            </g>
        </g>
    </g>
</svg>
