<svg xmlns="http://www.w3.org/2000/svg" width="190" height="47" viewBox="0 0 190 47">
    <g fill="none" fill-rule="evenodd">
        <g>
            <g>
                <path fill="#FFF" d="M48.367 22.858L48.324 15.667 50.35 15.667 50.35 26.038 48.48 26.038 43.65 18.862 43.693 26.038 41.667 26.038 41.667 15.667 43.551 15.667zM53.778 20.958c0 1.892 1.374 3.546 3.414 3.546 2.124 0 3.37-1.821 3.37-3.531 0-1.738-1.246-3.562-3.384-3.562-2.097 0-3.4 1.71-3.4 3.534v.013zm-2.111.084c0-3.321 2.578-5.466 5.495-5.466 3.174 0 5.511 2.44 5.511 5.382 0 2.944-2.323 5.382-5.524 5.382-3.216 0-5.482-2.51-5.482-5.284v-.014zM62.5 15.576L64.682 15.576 67.302 23.453 69.951 15.576 72.132 15.576 68.379 25.947 66.24 25.947zM73.778 20.958c0 1.892 1.374 3.546 3.414 3.546 2.124 0 3.37-1.821 3.37-3.531 0-1.738-1.246-3.562-3.385-3.562-2.096 0-3.4 1.71-3.4 3.534v.013zm-2.111.084c0-3.321 2.578-5.466 5.495-5.466 3.174 0 5.511 2.44 5.511 5.382 0 2.944-2.323 5.382-5.524 5.382-3.216 0-5.482-2.51-5.482-5.284v-.014zM91.634 18.955c-.212-.324-.467-.617-.78-.855-.537-.42-1.203-.688-2.01-.688-1.686 0-3.4 1.263-3.4 3.519 0 2.34 1.728 3.573 3.4 3.573.835 0 1.544-.238 2.082-.63.552-.392.92-.952 1.076-1.57h-3.91v-1.683h6.346c.03.688-.07 1.74-.466 2.609-.978 2.157-3.23 3.11-5.114 3.11-3.13 0-5.525-2.396-5.525-5.41 0-3.097 2.494-5.354 5.554-5.354 2.365 0 4.447 1.487 5.126 3.379h-2.379zM95.833 15.576h3.173c1.629 0 2.565.253 3.13.659.866.617 1.332 1.668 1.332 2.816 0 .757-.213 1.43-.566 1.935-.454.66-1.048.953-1.729 1.122l2.338 3.84h-2.21l-2.82-4.823h.412c.694 0 1.445-.041 1.884-.377.411-.336.665-.883.665-1.513 0-.631-.311-1.206-.778-1.501-.382-.238-.893-.322-1.487-.322h-1.233v8.535h-2.11V15.576z" transform="translate(-36 -32) translate(36 32)"/>
                <path fill="#FFF" d="M108.418 18.043l-1.486 4.205h3.016l-1.53-4.205zm-2.79 7.904h-2.295l4.25-10.371h1.856l4.15 10.371h-2.309l-.765-2.032h-4.136l-.75 2.032zM117.11 24.112h1.488c2.266 0 3.145-1.472 3.145-3.336 0-.813-.213-1.68-.708-2.326-.44-.561-1.147-1.038-2.422-1.038h-1.502v6.7zM115 15.576h3.33c1.302 0 3.2.126 4.447 1.794.765.953 1.077 2.104 1.077 3.38 0 2.927-1.559 5.198-5.37 5.198H115V15.576zM131.701 22.767L131.657 15.576 133.683 15.576 133.683 25.947 131.813 25.947 126.983 18.771 127.027 25.947 125 25.947 125 15.576 126.883 15.576zM140.84 22.12c0 1.109-.1 1.768-.328 2.285-.21.436-.621.883-1.047 1.15-.61.406-1.332.589-1.998.589-.452 0-2.79-.155-3.229-2.51-.042-.209-.056-.447-.071-.686h2.252c0 .098.015.183.03.28.154.674.58 1.08 1.118 1.08.581-.015.894-.322 1.02-.674.127-.322.142-.686.142-1.008v-7.05h2.111v6.545zM145.918 18.043l-1.487 4.205h3.017l-1.53-4.205zm-2.79 7.904h-2.295l4.25-10.371h1.856l4.15 10.371h-2.309l-.765-2.032h-4.136l-.75 2.032z" transform="translate(-36 -32) translate(36 32)"/>
                <path fill="#50E3B3" d="M152.5 25.896L154.44 25.896 154.44 23.822 152.5 23.822zM165.625 22.669c-.638 2.145-2.678 3.672-5.128 3.672-3.202 0-5.497-2.51-5.497-5.395 0-2.762 2.168-5.37 5.483-5.37 3.016.015 4.73 2.215 5.142 3.729H163.4c-.326-.715-1.26-1.878-2.93-1.893-2.04 0-3.36 1.696-3.36 3.534 0 1.89 1.375 3.56 3.373 3.56 1.869 0 2.72-1.459 2.917-1.837h2.225zM168.778 20.958c0 1.892 1.373 3.546 3.413 3.546 2.125 0 3.372-1.821 3.372-3.531 0-1.738-1.247-3.562-3.385-3.562-2.097 0-3.4 1.71-3.4 3.534v.013zm-2.111.084c0-3.321 2.578-5.466 5.495-5.466 3.175 0 5.512 2.44 5.512 5.382 0 2.944-2.324 5.382-5.526 5.382-3.215 0-5.481-2.51-5.481-5.284v-.014zM178.333 25.947L178.333 15.576 181.182 15.576 183.872 23.018 186.522 15.576 189.383 15.576 189.383 25.947 187.428 25.947 187.485 17.636 184.553 25.947 183.164 25.947 180.218 17.636 180.275 25.947z" transform="translate(-36 -32) translate(36 32)"/>
                <path fill="#FFF" d="M47.594 37.415L47.583 30.418 48.498 30.418 48.498 38.796 47.583 38.796 42.559 31.743 42.582 38.796 41.667 38.796 41.667 30.418 42.628 30.418zM50 30.418L54.691 30.418 54.691 31.244 50.938 31.244 50.938 34.154 54.668 34.154 54.668 34.98 50.938 34.98 50.938 37.969 54.691 37.969 54.691 38.796 50 38.796zM55 30.418L55.972 30.418 57.895 37.517 59.749 30.418 60.458 30.418 62.347 37.517 64.246 30.418 65.207 30.418 62.837 38.796 61.912 38.796 60.103 31.991 58.296 38.796 57.346 38.796zM70.105 37.97h1.682c2.174 0 3.307-1.326 3.307-3.34 0-.975-.263-1.835-.824-2.446-.537-.566-1.328-.94-2.483-.94h-1.682v6.725zm-.938-7.552h2.529c1.2 0 2.482.26 3.329 1.256.687.747 1.018 1.733 1.018 2.921 0 2.526-1.453 4.2-4.302 4.2h-2.574v-8.377zM77.5 30.418L82.192 30.418 82.192 31.244 78.438 31.244 78.438 34.154 82.169 34.154 82.169 34.98 78.438 34.98 78.438 37.969 82.192 37.969 82.192 38.796 77.5 38.796zM82.5 30.418L83.495 30.418 86.299 37.584 89.114 30.418 90.109 30.418 86.746 38.796 85.841 38.796zM90.833 30.418L95.525 30.418 95.525 31.244 91.772 31.244 91.772 34.154 95.502 34.154 95.502 34.98 91.772 34.98 91.772 37.969 95.525 37.969 95.525 38.796 90.833 38.796zM96.667 30.418L97.617 30.418 97.617 37.969 100.843 37.969 100.843 38.796 96.667 38.796zM100.95 34.755c0 1.97 1.5 3.51 3.48 3.51 2.002 0 3.466-1.597 3.466-3.51 0-1.913-1.464-3.51-3.478-3.51-1.991 0-3.467 1.563-3.467 3.499v.011zm-.95.023c0-2.582 2.027-4.36 4.418-4.36 2.484 0 4.416 1.88 4.416 4.337s-1.922 4.336-4.416 4.336c-2.506 0-4.418-1.913-4.418-4.302v-.011zM110.95 34.674h1.35c.71 0 1.145-.079 1.568-.35.366-.237.63-.77.63-1.358 0-.601-.264-1.132-.641-1.37-.424-.273-.858-.352-1.58-.352h-1.327v3.43zm1.282-4.256c1.189 0 1.75.135 2.277.531.56.432.903 1.213.903 1.994 0 .792-.354 1.596-.869 1.992-.56.43-1.133.566-2.23.566h-1.363v3.295H110v-8.378h2.232zM115.833 38.796L115.833 30.418 117.161 30.418 120.296 37.449 123.42 30.418 124.748 30.418 124.748 38.796 123.854 38.796 123.877 31.346 120.593 38.796 119.987 38.796 116.692 31.346 116.714 38.796zM126.667 30.418L131.357 30.418 131.357 31.244 127.606 31.244 127.606 34.154 131.337 34.154 131.337 34.98 127.606 34.98 127.606 37.969 131.357 37.969 131.357 38.796 126.667 38.796zM138.428 37.414L138.416 30.418 139.331 30.418 139.331 38.796 138.416 38.796 133.393 31.743 133.414 38.796 132.5 38.796 132.5 30.418 133.46 30.418zM142.083 31.244L140 31.244 140 30.418 145.125 30.418 145.125 31.244 143.032 31.244 143.032 38.796 142.083 38.796zM145.95 36.612c.138 1.391 1.168 1.686 1.692 1.686.882 0 1.694-.667 1.694-1.596 0-1.177-1.019-1.438-2.002-1.755-.686-.203-2.163-.633-2.163-2.218-.023-1.483 1.224-2.31 2.518-2.31 1.052 0 2.266.577 2.403 2.162h-.938c-.104-.543-.379-1.369-1.5-1.369-.847 0-1.546.566-1.546 1.437-.009 1.02.826 1.269 2.107 1.699.8.306 2.06.747 2.06 2.286 0 1.37-1.042 2.457-2.622 2.457-1.417 0-2.597-.882-2.653-2.479h.95zM154.167 30.418L158.468 30.418 158.468 31.244 155.104 31.244 155.104 34.188 158.446 34.188 158.446 35.026 155.104 35.026 155.104 38.796 154.167 38.796zM159.167 38.796L160.106 38.796 160.106 30.418 159.167 30.418zM167.593 37.414L167.583 30.418 168.498 30.418 168.498 38.796 167.583 38.796 162.558 31.743 162.581 38.796 161.667 38.796 161.667 30.418 162.627 30.418zM170.94 37.97h1.68c2.173 0 3.306-1.326 3.306-3.34 0-.975-.262-1.835-.823-2.446-.537-.566-1.327-.94-2.482-.94h-1.682v6.725zm-.94-7.552h2.528c1.201 0 2.484.26 3.33 1.256.687.747 1.019 1.733 1.019 2.921 0 2.526-1.454 4.2-4.304 4.2H170v-8.377zM178.333 30.418L183.024 30.418 183.024 31.244 179.271 31.244 179.271 34.154 183.002 34.154 183.002 34.98 179.271 34.98 179.271 37.969 183.024 37.969 183.024 38.796 178.333 38.796zM184.167 30.418h2.208c1.328 0 1.945.158 2.38.43.687.408 1.156 1.302 1.156 2.253.01.565-.149 1.166-.504 1.641-.502.68-1.108.84-1.888.918l2.107 3.136h-1.031l-2.39-3.657h.272c.596 0 1.42-.012 1.877-.43.448-.43.642-.94.642-1.54 0-.624-.31-1.28-.835-1.619-.423-.272-.951-.306-1.718-.306h-1.326v7.552h-.95v-8.378z" transform="translate(-36 -32) translate(36 32)"/>
                <path fill="#50E3B3" d="M28.626 31.866c-3.694 5.503-8.491 9.611-10.435 11.159-3.358-2.668-15.216-12.943-15.216-24.898 0-8.372 6.4-14.451 15.217-14.451 8.816 0 15.213 6.079 15.213 14.451 0 2.968-.734 5.833-1.887 8.505l2.266 2.242c1.563-3.295 2.596-6.92 2.596-10.747C36.38 8.21 28.562.734 18.192.734S0 8.21 0 18.127C0 33.468 16.612 45.573 17.32 46.08c.258.187.565.28.872.28.306 0 .612-.093.872-.282.434-.31 6.833-4.978 11.728-12.071l-2.166-2.141z" transform="translate(-36 -32) translate(36 32)"/>
                <path fill="#FFF" d="M17.594 21.892c-1.457 0-2.826-.56-3.856-1.581-1.03-1.018-1.595-2.373-1.595-3.814 0-2.976 2.449-5.398 5.46-5.398 1.456 0 2.824.56 3.853 1.58 1.029 1.018 1.596 2.373 1.595 3.815 0 2.976-2.448 5.398-5.457 5.398m14.697 7.072l-7.782-7.71c.953-1.352 1.516-2.992 1.516-4.76.002-2.226-.874-4.321-2.464-5.898-1.592-1.573-3.71-2.441-5.967-2.441-4.647 0-8.427 3.743-8.427 8.34 0 2.227.876 4.323 2.467 5.898 1.592 1.574 3.708 2.443 5.96 2.443 1.79 0 3.446-.558 4.811-1.503l7.782 7.712c.28.277.654.43 1.051.43.398 0 .772-.153 1.053-.43.28-.279.436-.648.436-1.04 0-.394-.155-.764-.436-1.041" transform="translate(-36 -32) translate(36 32)"/>
            </g>
        </g>
    </g>
</svg>
