<svg xmlns="http://www.w3.org/2000/svg" width="23" height="23" viewBox="0 0 23 23">
    <g fill="none" fill-rule="evenodd">
        <g fill="#2F8A6C" fill-rule="nonzero">
            <g>
                <g>
                    <g>
                        <path d="M22.093 20.49l-5.986-6.015c1.15-1.516 1.836-3.408 1.836-5.458 0-4.968-4.025-9.012-8.972-9.012C4.024.005 0 4.049 0 9.017c0 4.97 4.024 9.015 8.971 9.015 2.098 0 4.028-.728 5.557-1.945l5.974 6.001 1.591-1.599zM8.971 16.002c-3.833 0-6.952-3.133-6.952-6.986 0-3.85 3.12-6.983 6.952-6.983 3.834 0 6.953 3.134 6.953 6.983 0 3.853-3.12 6.986-6.953 6.986z" transform="translate(-996 -536) translate(298.054 518.73) translate(668.836) translate(29.25 17.55)"/>
                    </g>
                </g>
            </g>
        </g>
    </g>
</svg>
