<svg xmlns="http://www.w3.org/2000/svg" width="30" height="30" viewBox="0 0 30 30">
    <g fill="none" fill-rule="evenodd">
        <g>
            <g>
                <g>
                    <g transform="translate(-1247 -2184) translate(1 2143) translate(1157 41) translate(89)">
                        <circle cx="15" cy="15" r="14.435" stroke="#50E3B3" stroke-width="1.129"/>
                        <g fill="#50E3B3" fill-rule="nonzero">
                            <path d="M15.614 1.687c-.105-.072-.245-.068-.347.01-.134.1-.351.181-.585.243.61-.684.623-1.141.616-1.246-.007-.109-.072-.205-.17-.251-.099-.047-.214-.035-.302.029-.686.499-1.37.604-1.776.615-.624-.598-1.434-.925-2.296-.925-1.846 0-3.348 1.523-3.348 3.395 0 .162.012.322.034.482C4.241 4.002 1.643.934 1.616.902 1.554.827 1.46.787 1.362.796c-.097.008-.184.064-.232.148-.92 1.599-.305 3.003.258 3.807-.1-.053-.18-.106-.228-.141-.09-.067-.21-.078-.31-.028s-.164.15-.166.262c-.025 1.524.707 2.397 1.396 2.88-.092-.01-.185.024-.249.094-.071.078-.097.188-.066.289.476 1.559 1.644 2.089 2.388 2.268-1.529 1.192-3.778.808-3.803.804-.136-.024-.27.047-.325.173-.055.126-.018.274.092.357 1.613 1.233 3.543 1.506 4.937 1.506 1.054 0 1.802-.156 1.873-.172 7.06-1.675 7.26-8.15 7.243-9.21 1.325-1.234 1.532-1.704 1.564-1.82.034-.123-.014-.255-.12-.326zm-1.947 1.8c-.067.06-.102.149-.096.24.019.286.38 7.037-6.775 8.734-.032.007-2.877.601-5.342-.622 1.042-.028 2.535-.302 3.576-1.471.079-.088.098-.215.049-.322-.048-.107-.155-.175-.271-.175h-.003c-.015.01-1.58-.002-2.296-1.491.289.016.644-.002.928-.133.117-.054.185-.176.171-.304-.014-.128-.109-.232-.235-.258-.08-.017-1.821-.407-2.065-2.31.264.117.602.211.936.16.115-.017.21-.1.242-.212.033-.111-.003-.232-.09-.308-.075-.065-1.71-1.52-.935-3.397.842.884 3.335 3.182 6.356 3.008.089-.005.17-.05.223-.121.053-.072.07-.163.05-.249-.058-.228-.087-.463-.087-.698 0-1.544 1.234-2.8 2.752-2.8.742 0 1.438.297 1.96.836.055.056.13.089.209.09.315.005.834-.033 1.42-.268-.169.21-.417.464-.783.751-.103.081-.14.22-.093.343.048.123.172.2.301.189.07-.006.424-.037.824-.124-.219.235-.518.535-.926.912z" transform="translate(7.105 8.684)"/>
                        </g>
                    </g>
                </g>
            </g>
        </g>
    </g>
</svg>
